<?xml version="1.0" encoding="UTF-8" standalone="no"?>
<!-- Created with Inkscape (http://www.inkscape.org/) -->

<svg
   width="7.7280807mm"
   height="9.4300919mm"
   viewBox="0 0 7.7280807 9.4300918"
   version="1.1"
   id="svg1"
   xml:space="preserve"
   xmlns="http://www.w3.org/2000/svg"
   xmlns:svg="http://www.w3.org/2000/svg"><defs
     id="defs1"><clipPath
       clipPathUnits="userSpaceOnUse"
       id="clipPath46">
                            <path
   style="fill:#000000;fill-opacity:1;stroke:none;stroke-width:0.261536"
   d="m -45.833332,419.62528 c 0,0 -27.685177,-32.54314 -35.464538,-37.66619 -7.779348,-5.12302 -58.19859,-40.58822 -62.41623,-46.64779 -4.21754,-6.05954 -28.61947,-31.27626 -32.60049,-39.77587 -3.98095,-8.49966 -19.57151,-39.61924 -19.57151,-39.61924 0,0 -21.33435,-19.24367 -17.33406,-26.37877 4.00028,-7.13507 10.03664,-16.2523 15.60671,-10.33669 5.57006,5.91564 12.94607,21.80262 18.81248,33.77256 5.86642,11.96996 26.22536,35.58532 35.7375,41.85848 9.51205,6.27314 24.89763,22.17666 33.73207,30.58957 8.83443,8.4129 25.560541,25.57637 34.33323,33.7979 8.77262,8.22153 13.410165,13.0275 21.084458,22.23889 7.674353,9.21139 8.08038,38.16715 8.08038,38.16715 z M 0.44653167,433.01497 -28.551389,376.44094 c -9.969685,-6.34815 -60.501559,-52.88875 -60.501559,-52.88875 -6.834852,-7.23644 -60.678042,-67.40755 -60.678042,-67.40755 -5.35009,-9.0124 -34.46735,-62.72871 -34.46735,-62.72871 -4.26166,-13.91904 -31.44913,-76.7696 -31.44913,-76.7696 -5.20697,-8.24408 -31.57554,-52.889132 -31.57554,-52.889132 l 21.40022,6.693435 41.80203,68.721197 c 2.16198,8.53809 44.23705,82.33358 44.23705,82.33358 12.70361,20.39644 46.020282,56.68166 46.020282,56.68166 14.150789,9.60134 42.405085,37.25273 42.405085,37.25273 8.054809,11.10628 30.605294,34.46896 30.605294,34.46896 10.237893,12.90691 32.476757,46.4829 32.476757,46.4829 5.398056,10.65768 13.477399,51.18465 13.477399,51.18465 z m 45.95539933,7.83984 -18.34634,-50.85077 c -4.237302,-7.60841 -38.255866,-62.28239 -38.255866,-62.28239 L -74.886479,273.6315 -127.0322,220.7182 c -7.00997,-7.2511 -51.31292,-98.70017 -51.31292,-98.70017 -4.0285,-6.89796 -33.5079,-67.773896 -33.5079,-67.773896 l -10.4234,-20.928772 24.73628,-1.519952 33.97568,67.283579 c 2.08534,5.313501 41.61052,79.924591 41.61052,79.924591 4.54432,15.46227 29.92408,52.31594 29.92408,52.31594 9.80313,12.00928 25.132247,29.76523 25.132247,29.76523 10.885922,4.13832 12.581213,-10.25795 12.581213,-10.25795 l -34.582568,-43.53755 c -7.363582,-9.05464 -24.110102,-52.39835 -24.110102,-52.39835 -6.6768,-10.56305 -29.68052,-60.960171 -29.68052,-60.960171 -4.11351,-7.1872 -13.95014,-33.82889 -13.95014,-33.82889 -3.44033,-13.206693 -8.01675,-29.359669 -8.01675,-29.359669 l 41.61627,-5.742215 22.5979,73.345344 c 4.677002,8.785741 28.371813,97.118011 28.371813,97.118011 4.528769,8.30005 42.156234,73.77167 42.156234,73.77167 7.076998,6.59741 50.626317,71.17212 50.626317,71.17212 7.840768,10.07761 31.555055,47.77364 31.555055,47.77364 3.937503,9.85205 19.719396,52.27749 19.719396,52.27749 L 60.71372,450.12216 Z M 99.891765,455.3671 C 101.49167,448.05537 93.267868,415.04635 93.267868,415.04635 88.86835,408.36771 61.756417,365.92026 61.756417,365.92026 L 9.5586758,302.75721 c -2.8254589,-5.76858 -37.5158448,-76.96579 -37.5158448,-76.96579 -5.823514,-10.32318 -50.18286,-122.4291 -50.18286,-122.4291 -2.181079,-7.12117 -19.905239,-76.319814 -19.905239,-76.319814 6.867549,-4.206986 38.642793,-3.104184 38.642793,-3.104184 2.978036,16.06042 31.632184,75.310008 31.632184,75.310008 5.312137,20.73851 30.1278552,90.95669 30.1278552,90.95669 3.8375431,21.06715 28.3159198,78.2638 28.3159198,78.2638 14.679904,20.59297 38.609746,51.03133 38.609746,51.03133 11.201056,15.86539 27.493966,38.10124 27.493966,38.10124 6.452154,16.02618 17.868134,36.48684 17.868134,36.48684 10.25678,18.29847 20.27285,54.76107 20.27285,54.76107 -2.64427,13.23078 -10.60863,18.15153 -10.60863,18.15153 z M 142.27815,406.8885 C 140.21162,398.6752 97.302129,336.27753 97.302129,336.27753 88.377522,328.13924 49.978172,271.29613 49.978172,271.29613 41.320238,255.17396 20.059618,175.72422 20.059618,175.72422 16.284913,167.02614 4.8312596,129.25504 4.8312596,129.25504 -1.1775867,120.36457 -18.720216,79.057499 -18.720216,79.057499 -21.965727,67.414351 -32.183859,40.956436 -32.183859,40.956436 -39.375787,33.086243 -36.966488,11.346404 -36.966488,11.346404 l 22.53743,-0.691787 9.7679142,40.344929 C 2.1933637,66.913 16.25229,96.96669 16.25229,96.96669 22.165992,108.17849 36.850341,117.2316 36.850341,117.2316 39.877227,108.86651 29.787368,72.45319 29.787368,72.45319 25.096464,57.392331 24.814604,23.813333 24.814604,23.813333 18.35885,15.484215 20.467209,5.7572455 20.467209,5.7572455 l 50.260752,6.1886125 4.719029,72.38684 c 0.285882,13.42811 -0.740674,78.401722 -0.740674,78.401722 -0.635106,9.99412 10.231808,53.197 10.231808,53.197 4.51477,24.25302 17.481526,51.49087 17.481526,51.49087 10.78978,15.66653 22.28657,48.5571 22.28657,48.5571 8.79633,12.12871 31.35669,32.28001 31.35669,32.28001 9.8253,14.74817 24.87851,38.69352 24.87851,38.69352 5.42057,14.59833 9.15792,37.98829 9.15792,37.98829 2.67747,14.73742 -3.17834,32.7601 -3.17834,32.7601 -4.19605,8.25116 -29.3235,6.3578 -29.3235,6.3578 l -1.68389,-24.41244 z"
   id="path47" />
                        </clipPath><clipPath
       clipPathUnits="userSpaceOnUse"
       id="clipPath3">
                            <rect
   style="fill:#000000;stroke-width:0.21573"
   id="rect4"
   width="147.48918"
   height="147.48918"
   x="533.11859"
   y="-474.58731" />
                        </clipPath></defs><path
     id="paw-badge"
     style="fill:#b29c86;fill-opacity:1;stroke-width:0.264583"
     d="M 3.301246,3.6e-5 C 3.270676,0.002236 3.151273,0.073186 3.018357,0.169168 2.867451,0.278138 2.594986,0.61366 2.390643,0.94195 2.06913,1.458482 2.024217,1.57877 1.981007,2.03987 1.935487,2.525641 1.945517,2.583688 2.143851,2.976588 2.26204,3.21072 2.42727,3.428764 2.518482,3.470994 c 0.08975,0.04154 0.32076,0.05977 0.513273,0.04047 C 3.313404,3.483224 3.418983,3.433424 3.572376,3.256604 3.756949,3.043853 3.763034,3.009932 3.764886,2.191362 3.766486,1.43003 3.745066,1.280274 3.548722,0.686269 3.428797,0.323468 3.320349,0.015437 3.307808,0.001676 c -0.0011,-0.0013 -0.0034,-0.0019 -0.0066,-0.0016 z m 1.89449,0.01258 c -0.006,0.0077 -0.1404,0.244364 -0.29875,0.525853 C 4.339188,1.530037 4.003945,3.04299 4.28951,3.279986 4.346,3.326866 4.542886,3.406678 4.727036,3.457321 c 0.47534,0.130725 0.72299,0.123482 0.97213,-0.02844 0.24721,-0.150742 0.30777,-0.351729 0.30777,-1.022173 0,-0.67508 -0.19281,-1.398507 -0.51587,-1.93551 -0.1564,-0.259976 -0.28935,-0.46633 -0.29533,-0.458582 z M 0.944751,2.303754 0.71382,2.565313 C 0.448528,2.865666 0.069216,3.900955 0.008306,4.491116 c -0.0213,0.206456 -2.01e-4,0.603754 0.0469,0.882984 0.06918,0.410157 0.11452,0.519118 0.235993,0.566735 0.183882,0.07208 0.319135,0.04489 1.165463,-0.234351 l 0.665041,-0.219447 0.09653,-0.4069 C 2.313143,4.680321 2.310733,4.662268 2.080412,4.045522 1.902228,3.568388 1.737948,3.284278 1.395408,2.860781 Z m 6.346875,0.319258 c -0.0312,-7.41e-4 -0.0692,0.03609 -0.12469,0.07944 -0.73956,0.577624 -1.26516,1.075962 -1.44794,1.373015 -0.18968,0.308267 -0.21335,0.401041 -0.18609,0.729713 0.0384,0.463728 0.24549,0.69338 0.85906,0.953263 0.23101,0.09785 0.43981,0.179165 0.46405,0.180753 0.0242,0.0016 0.21826,-0.07696 0.43124,-0.174464 0.3748,-0.17159 0.38873,-0.187873 0.43192,-0.507531 C 7.749076,5.035619 7.703776,4.581473 7.581766,3.876939 7.407576,2.87145 7.371466,2.624895 7.291626,2.623014 Z M 3.760648,5.166548 3.409532,5.357693 C 3.189939,5.477211 2.931954,5.709755 2.7207,5.978571 2.534939,6.214949 2.142432,6.626273 1.848382,6.892593 1.426734,7.274478 1.284418,7.455061 1.175137,7.747138 1.098927,7.950828 1.036633,8.162979 1.036633,8.21871 c 0,0.05573 0.0995,0.263035 0.221088,0.460634 0.179959,0.292469 0.300358,0.396747 0.647539,0.560992 v 1.37e-4 c 0.538837,0.254914 0.805987,0.253425 1.522867,-0.0082 0.688912,-0.251422 1.083569,-0.265197 1.766239,-0.06166 0.38181,0.113832 0.60343,0.138944 0.95258,0.108151 0.44596,-0.03933 0.46227,-0.04806 0.82078,-0.4378 0.20119,-0.218721 0.38513,-0.458249 0.40868,-0.532416 0.0235,-0.07417 -0.01,-0.370904 -0.074,-0.659299 C 7.169256,7.05077 7.117006,6.998518 6.058596,6.404485 5.734786,6.22275 5.279886,5.920262 5.047636,5.732334 4.741366,5.484518 4.506516,5.359925 4.19295,5.278673 Z" /></svg>
