<?xml version="1.0" encoding="UTF-8" standalone="no"?>
<!-- Created with Inkscape (http://www.inkscape.org/) -->

<svg
   width="9.4471521mm"
   height="9.4506226mm"
   viewBox="0 0 9.447152 9.4506225"
   version="1.1"
   id="svg1"
   xml:space="preserve"
   xmlns="http://www.w3.org/2000/svg"
   xmlns:svg="http://www.w3.org/2000/svg"><defs
     id="defs1"><clipPath
       clipPathUnits="userSpaceOnUse"
       id="clipPath46">
                            <path
   style="fill:#000000;fill-opacity:1;stroke:none;stroke-width:0.261536"
   d="m -45.833332,419.62528 c 0,0 -27.685177,-32.54314 -35.464538,-37.66619 -7.779348,-5.12302 -58.19859,-40.58822 -62.41623,-46.64779 -4.21754,-6.05954 -28.61947,-31.27626 -32.60049,-39.77587 -3.98095,-8.49966 -19.57151,-39.61924 -19.57151,-39.61924 0,0 -21.33435,-19.24367 -17.33406,-26.37877 4.00028,-7.13507 10.03664,-16.2523 15.60671,-10.33669 5.57006,5.91564 12.94607,21.80262 18.81248,33.77256 5.86642,11.96996 26.22536,35.58532 35.7375,41.85848 9.51205,6.27314 24.89763,22.17666 33.73207,30.58957 8.83443,8.4129 25.560541,25.57637 34.33323,33.7979 8.77262,8.22153 13.410165,13.0275 21.084458,22.23889 7.674353,9.21139 8.08038,38.16715 8.08038,38.16715 z M 0.44653167,433.01497 -28.551389,376.44094 c -9.969685,-6.34815 -60.501559,-52.88875 -60.501559,-52.88875 -6.834852,-7.23644 -60.678042,-67.40755 -60.678042,-67.40755 -5.35009,-9.0124 -34.46735,-62.72871 -34.46735,-62.72871 -4.26166,-13.91904 -31.44913,-76.7696 -31.44913,-76.7696 -5.20697,-8.24408 -31.57554,-52.889132 -31.57554,-52.889132 l 21.40022,6.693435 41.80203,68.721197 c 2.16198,8.53809 44.23705,82.33358 44.23705,82.33358 12.70361,20.39644 46.020282,56.68166 46.020282,56.68166 14.150789,9.60134 42.405085,37.25273 42.405085,37.25273 8.054809,11.10628 30.605294,34.46896 30.605294,34.46896 10.237893,12.90691 32.476757,46.4829 32.476757,46.4829 5.398056,10.65768 13.477399,51.18465 13.477399,51.18465 z m 45.95539933,7.83984 -18.34634,-50.85077 c -4.237302,-7.60841 -38.255866,-62.28239 -38.255866,-62.28239 L -74.886479,273.6315 -127.0322,220.7182 c -7.00997,-7.2511 -51.31292,-98.70017 -51.31292,-98.70017 -4.0285,-6.89796 -33.5079,-67.773896 -33.5079,-67.773896 l -10.4234,-20.928772 24.73628,-1.519952 33.97568,67.283579 c 2.08534,5.313501 41.61052,79.924591 41.61052,79.924591 4.54432,15.46227 29.92408,52.31594 29.92408,52.31594 9.80313,12.00928 25.132247,29.76523 25.132247,29.76523 10.885922,4.13832 12.581213,-10.25795 12.581213,-10.25795 l -34.582568,-43.53755 c -7.363582,-9.05464 -24.110102,-52.39835 -24.110102,-52.39835 -6.6768,-10.56305 -29.68052,-60.960171 -29.68052,-60.960171 -4.11351,-7.1872 -13.95014,-33.82889 -13.95014,-33.82889 -3.44033,-13.206693 -8.01675,-29.359669 -8.01675,-29.359669 l 41.61627,-5.742215 22.5979,73.345344 c 4.677002,8.785741 28.371813,97.118011 28.371813,97.118011 4.528769,8.30005 42.156234,73.77167 42.156234,73.77167 7.076998,6.59741 50.626317,71.17212 50.626317,71.17212 7.840768,10.07761 31.555055,47.77364 31.555055,47.77364 3.937503,9.85205 19.719396,52.27749 19.719396,52.27749 L 60.71372,450.12216 Z M 99.891765,455.3671 C 101.49167,448.05537 93.267868,415.04635 93.267868,415.04635 88.86835,408.36771 61.756417,365.92026 61.756417,365.92026 L 9.5586758,302.75721 c -2.8254589,-5.76858 -37.5158448,-76.96579 -37.5158448,-76.96579 -5.823514,-10.32318 -50.18286,-122.4291 -50.18286,-122.4291 -2.181079,-7.12117 -19.905239,-76.319814 -19.905239,-76.319814 6.867549,-4.206986 38.642793,-3.104184 38.642793,-3.104184 2.978036,16.06042 31.632184,75.310008 31.632184,75.310008 5.312137,20.73851 30.1278552,90.95669 30.1278552,90.95669 3.8375431,21.06715 28.3159198,78.2638 28.3159198,78.2638 14.679904,20.59297 38.609746,51.03133 38.609746,51.03133 11.201056,15.86539 27.493966,38.10124 27.493966,38.10124 6.452154,16.02618 17.868134,36.48684 17.868134,36.48684 10.25678,18.29847 20.27285,54.76107 20.27285,54.76107 -2.64427,13.23078 -10.60863,18.15153 -10.60863,18.15153 z M 142.27815,406.8885 C 140.21162,398.6752 97.302129,336.27753 97.302129,336.27753 88.377522,328.13924 49.978172,271.29613 49.978172,271.29613 41.320238,255.17396 20.059618,175.72422 20.059618,175.72422 16.284913,167.02614 4.8312596,129.25504 4.8312596,129.25504 -1.1775867,120.36457 -18.720216,79.057499 -18.720216,79.057499 -21.965727,67.414351 -32.183859,40.956436 -32.183859,40.956436 -39.375787,33.086243 -36.966488,11.346404 -36.966488,11.346404 l 22.53743,-0.691787 9.7679142,40.344929 C 2.1933637,66.913 16.25229,96.96669 16.25229,96.96669 22.165992,108.17849 36.850341,117.2316 36.850341,117.2316 39.877227,108.86651 29.787368,72.45319 29.787368,72.45319 25.096464,57.392331 24.814604,23.813333 24.814604,23.813333 18.35885,15.484215 20.467209,5.7572455 20.467209,5.7572455 l 50.260752,6.1886125 4.719029,72.38684 c 0.285882,13.42811 -0.740674,78.401722 -0.740674,78.401722 -0.635106,9.99412 10.231808,53.197 10.231808,53.197 4.51477,24.25302 17.481526,51.49087 17.481526,51.49087 10.78978,15.66653 22.28657,48.5571 22.28657,48.5571 8.79633,12.12871 31.35669,32.28001 31.35669,32.28001 9.8253,14.74817 24.87851,38.69352 24.87851,38.69352 5.42057,14.59833 9.15792,37.98829 9.15792,37.98829 2.67747,14.73742 -3.17834,32.7601 -3.17834,32.7601 -4.19605,8.25116 -29.3235,6.3578 -29.3235,6.3578 l -1.68389,-24.41244 z"
   id="path47" />
                        </clipPath><clipPath
       clipPathUnits="userSpaceOnUse"
       id="clipPath3">
                            <rect
   style="fill:#000000;stroke-width:0.21573"
   id="rect4"
   width="147.48918"
   height="147.48918"
   x="533.11859"
   y="-474.58731" />
                        </clipPath></defs><path
     id="sharing-badge"
     style="fill:#b29c86;fill-opacity:1;stroke-width:0.264583"
     d="m 0.96023236,1.8784374e-5 c -1.09014,0 -1.07246,-0.01129000437 -0.81448,0.519699995626 0.14718,0.302945 0.16525,0.314897 0.54253,0.361097 0.21465,0.02629 0.53211004,0.06932 0.70537004,0.09557 0.17326,0.02625 0.33077,0.03536 0.35003,0.02023 0.0193,-0.01512 0.0683,-0.245539 0.10911,-0.512043 l 0.0741,-0.484560995626 z m 3.09031004,0 c -1.53382,0 -1.53413,3.8e-5 -1.56963,0.157509995626 -0.0195,0.08663 -0.0818,0.455161 -0.13823,0.818996 l -0.10255,0.66148602 0.91936,1.421143 c 0.50567,0.781612 0.94347,1.421143 0.97281,1.421143 0.0293,0 0.52533,-0.284091 1.10216,-0.63127 l 1.0487,-0.631269 0.18485,-0.554703 0.18472,-0.554702 -0.53405,-1.054167 -0.53392,-1.054167015626 z m 3.71898,0 c -0.81161,0 -1.47556,0.01290999563 -1.47556,0.02870999563 0,0.04531 0.74797,1.65269302 0.78741,1.69213602 0.0195,0.01945 0.23619,0.09458 0.48156,0.166944 0.24536,0.07237 0.46527,0.134058 0.48866,0.137 0.0234,0.0029 0.24201,-0.237822 0.48593,-0.535013 0.42482,-0.51760002 0.55257,-0.76230402 0.65916,-1.26226602 L 9.2451824,1.5784374e-5 Z M 9.4441524,1.3749478 l -0.26251,0.304628 c -0.49477,0.574173 -0.48817,0.51461 -0.11034,0.982112 0.18577,0.229864 0.34572,0.418105 0.35535,0.418248 0.01,1.44e-4 0.0175,-0.383398 0.0175,-0.852357 z m -9.03370004,0.446688 c -0.0141,2.36e-4 -0.0231,0.0019 -0.0261,0.0051 -0.0153,0.01565 -0.0781,0.721483 -0.13947,1.568535 -0.0614,0.847053 -0.1295,1.705481 -0.15149,1.907619 -0.022,0.202137 -0.0167,0.367522 0.0116,0.367522 0.0283,0 0.51104,-0.08147 1.07262004,-0.181026 0.8646,-0.153273 1.08544,-0.219387 1.44111,-0.431375 0.23101,-0.137693 0.45652,-0.278267 0.50124,-0.312422 0.0587,-0.04484 -0.064,-0.396806 -0.44149,-1.26623 -0.28757,-0.66228 -0.56047,-1.238842 -0.60639,-1.281271 -0.0812,-0.07504 -1.45038004,-0.379958 -1.66165004,-0.37641 z m 7.97311004,0.789873 -0.60734,0.134266 c -0.33402,0.07384 -0.6434,0.145602 -0.6876,0.159424 -0.053,0.01657 0.0949,0.602283 0.43424,1.718661 0.28308,0.931425 0.52576,1.704466 0.53912,1.717841 0.0134,0.01337 0.3219,0.04893 0.68569,0.07903 l 0.66148,0.05469 0.019,-1.397079 0.019,-1.396942 -0.53187,-0.535013 z m -1.96408,1.320238 -0.97938,0.851811 -0.97952,0.85181 0.0422,0.700044 c 0.0872,1.44525 0.11408,1.30619 -0.43588,2.25764 l -0.49578,0.857553 1.06388,-3.97e-4 c 0.58511,-2.31e-4 1.31679,-0.02009 1.62596,-0.04416 l 0.56208,-0.04375 0.392,-1.251054 0.39186,-1.250917 -0.59381,-1.464349 z m -2.8211,1.401864 c -0.0109,-0.01197 -0.36338,0.135208 -0.78331,0.327052 -0.62154,0.283945 -0.95158,0.38409 -1.77499,0.538568 -0.55633004,0.104371 -1.01906004,0.195659 -1.02819004,0.202904 -0.0377,0.0299 0.19232,2.151612 0.24228,2.234806 0.0299,0.04974 0.18043,0.251767 0.33444,0.449012 l 0.28001,0.358636 1.09163004,0.003 1.09163,0.003 0.38147,-1.049108 0.38147,-1.049108 -0.0983,-0.998519 c -0.0541,-0.549194 -0.10725,-1.008286 -0.11813,-1.020258 z m 4.60921,1.6544 -0.43178,0.987991 c -0.23751,0.5434 -0.43179,1.018157 -0.43179,1.054987 0,0.03683 0.14964,0.144755 0.33253,0.239956 0.28877,0.150323 0.42691,0.173547 1.05006,0.176378 l 0.71754,0.0033 v -1.15097 c 0,-0.633017 -0.0236,-1.16498 -0.0525,-1.182144 -0.0289,-0.01716 -0.30712,-0.05335 -0.61828,-0.08039 z" /></svg>
