<?xml version="1.0" encoding="UTF-8" standalone="no"?>
<!-- Created with Inkscape (http://www.inkscape.org/) -->

<svg
   width="9.4553699mm"
   height="9.4856272mm"
   viewBox="0 0 9.4553698 9.4856271"
   version="1.1"
   id="svg1"
   xml:space="preserve"
   xmlns="http://www.w3.org/2000/svg"
   xmlns:svg="http://www.w3.org/2000/svg"><defs
     id="defs1"><clipPath
       clipPathUnits="userSpaceOnUse"
       id="clipPath46">
                            <path
   style="fill:#000000;fill-opacity:1;stroke:none;stroke-width:0.261536"
   d="m -45.833332,419.62528 c 0,0 -27.685177,-32.54314 -35.464538,-37.66619 -7.779348,-5.12302 -58.19859,-40.58822 -62.41623,-46.64779 -4.21754,-6.05954 -28.61947,-31.27626 -32.60049,-39.77587 -3.98095,-8.49966 -19.57151,-39.61924 -19.57151,-39.61924 0,0 -21.33435,-19.24367 -17.33406,-26.37877 4.00028,-7.13507 10.03664,-16.2523 15.60671,-10.33669 5.57006,5.91564 12.94607,21.80262 18.81248,33.77256 5.86642,11.96996 26.22536,35.58532 35.7375,41.85848 9.51205,6.27314 24.89763,22.17666 33.73207,30.58957 8.83443,8.4129 25.560541,25.57637 34.33323,33.7979 8.77262,8.22153 13.410165,13.0275 21.084458,22.23889 7.674353,9.21139 8.08038,38.16715 8.08038,38.16715 z M 0.44653167,433.01497 -28.551389,376.44094 c -9.969685,-6.34815 -60.501559,-52.88875 -60.501559,-52.88875 -6.834852,-7.23644 -60.678042,-67.40755 -60.678042,-67.40755 -5.35009,-9.0124 -34.46735,-62.72871 -34.46735,-62.72871 -4.26166,-13.91904 -31.44913,-76.7696 -31.44913,-76.7696 -5.20697,-8.24408 -31.57554,-52.889132 -31.57554,-52.889132 l 21.40022,6.693435 41.80203,68.721197 c 2.16198,8.53809 44.23705,82.33358 44.23705,82.33358 12.70361,20.39644 46.020282,56.68166 46.020282,56.68166 14.150789,9.60134 42.405085,37.25273 42.405085,37.25273 8.054809,11.10628 30.605294,34.46896 30.605294,34.46896 10.237893,12.90691 32.476757,46.4829 32.476757,46.4829 5.398056,10.65768 13.477399,51.18465 13.477399,51.18465 z m 45.95539933,7.83984 -18.34634,-50.85077 c -4.237302,-7.60841 -38.255866,-62.28239 -38.255866,-62.28239 L -74.886479,273.6315 -127.0322,220.7182 c -7.00997,-7.2511 -51.31292,-98.70017 -51.31292,-98.70017 -4.0285,-6.89796 -33.5079,-67.773896 -33.5079,-67.773896 l -10.4234,-20.928772 24.73628,-1.519952 33.97568,67.283579 c 2.08534,5.313501 41.61052,79.924591 41.61052,79.924591 4.54432,15.46227 29.92408,52.31594 29.92408,52.31594 9.80313,12.00928 25.132247,29.76523 25.132247,29.76523 10.885922,4.13832 12.581213,-10.25795 12.581213,-10.25795 l -34.582568,-43.53755 c -7.363582,-9.05464 -24.110102,-52.39835 -24.110102,-52.39835 -6.6768,-10.56305 -29.68052,-60.960171 -29.68052,-60.960171 -4.11351,-7.1872 -13.95014,-33.82889 -13.95014,-33.82889 -3.44033,-13.206693 -8.01675,-29.359669 -8.01675,-29.359669 l 41.61627,-5.742215 22.5979,73.345344 c 4.677002,8.785741 28.371813,97.118011 28.371813,97.118011 4.528769,8.30005 42.156234,73.77167 42.156234,73.77167 7.076998,6.59741 50.626317,71.17212 50.626317,71.17212 7.840768,10.07761 31.555055,47.77364 31.555055,47.77364 3.937503,9.85205 19.719396,52.27749 19.719396,52.27749 L 60.71372,450.12216 Z M 99.891765,455.3671 C 101.49167,448.05537 93.267868,415.04635 93.267868,415.04635 88.86835,408.36771 61.756417,365.92026 61.756417,365.92026 L 9.5586758,302.75721 c -2.8254589,-5.76858 -37.5158448,-76.96579 -37.5158448,-76.96579 -5.823514,-10.32318 -50.18286,-122.4291 -50.18286,-122.4291 -2.181079,-7.12117 -19.905239,-76.319814 -19.905239,-76.319814 6.867549,-4.206986 38.642793,-3.104184 38.642793,-3.104184 2.978036,16.06042 31.632184,75.310008 31.632184,75.310008 5.312137,20.73851 30.1278552,90.95669 30.1278552,90.95669 3.8375431,21.06715 28.3159198,78.2638 28.3159198,78.2638 14.679904,20.59297 38.609746,51.03133 38.609746,51.03133 11.201056,15.86539 27.493966,38.10124 27.493966,38.10124 6.452154,16.02618 17.868134,36.48684 17.868134,36.48684 10.25678,18.29847 20.27285,54.76107 20.27285,54.76107 -2.64427,13.23078 -10.60863,18.15153 -10.60863,18.15153 z M 142.27815,406.8885 C 140.21162,398.6752 97.302129,336.27753 97.302129,336.27753 88.377522,328.13924 49.978172,271.29613 49.978172,271.29613 41.320238,255.17396 20.059618,175.72422 20.059618,175.72422 16.284913,167.02614 4.8312596,129.25504 4.8312596,129.25504 -1.1775867,120.36457 -18.720216,79.057499 -18.720216,79.057499 -21.965727,67.414351 -32.183859,40.956436 -32.183859,40.956436 -39.375787,33.086243 -36.966488,11.346404 -36.966488,11.346404 l 22.53743,-0.691787 9.7679142,40.344929 C 2.1933637,66.913 16.25229,96.96669 16.25229,96.96669 22.165992,108.17849 36.850341,117.2316 36.850341,117.2316 39.877227,108.86651 29.787368,72.45319 29.787368,72.45319 25.096464,57.392331 24.814604,23.813333 24.814604,23.813333 18.35885,15.484215 20.467209,5.7572455 20.467209,5.7572455 l 50.260752,6.1886125 4.719029,72.38684 c 0.285882,13.42811 -0.740674,78.401722 -0.740674,78.401722 -0.635106,9.99412 10.231808,53.197 10.231808,53.197 4.51477,24.25302 17.481526,51.49087 17.481526,51.49087 10.78978,15.66653 22.28657,48.5571 22.28657,48.5571 8.79633,12.12871 31.35669,32.28001 31.35669,32.28001 9.8253,14.74817 24.87851,38.69352 24.87851,38.69352 5.42057,14.59833 9.15792,37.98829 9.15792,37.98829 2.67747,14.73742 -3.17834,32.7601 -3.17834,32.7601 -4.19605,8.25116 -29.3235,6.3578 -29.3235,6.3578 l -1.68389,-24.41244 z"
   id="path47" />
                        </clipPath><clipPath
       clipPathUnits="userSpaceOnUse"
       id="clipPath3">
                            <rect
   style="fill:#000000;stroke-width:0.21573"
   id="rect4"
   width="147.48918"
   height="147.48918"
   x="533.11859"
   y="-474.58731" />
                        </clipPath></defs><path
     id="zebra-badge"
     style="fill:#b29c86;fill-opacity:1;stroke-width:0.264583"
     d="M 0,0 0.0194,0.98006 0.0389,1.960121 0.6997,3.220199 1.36051,4.480278 2.3098,5.4494 C 2.83191,5.982409 3.8141,6.886156 4.49252,7.457786 5.17093,8.029417 5.74275,8.540932 5.76326,8.5944 5.78376,8.64787 5.91495,8.870179 6.05463,9.088532 l 0.2539,0.397056 H 6.7306 c 0.31948,0 0.409,-0.02126 0.36848,-0.08751 C 6.99721,9.231509 5.44483,6.998557 5.11585,6.545401 4.93417,6.295136 4.48225,5.55484 4.11159,4.9003 3.44736,3.727336 3.43118,3.68758 2.98469,2.135128 2.73554,1.268824 2.49318,0.441898 2.44612,0.297514 L 2.36052,0.034998 H 1.63723 c -0.39781,0 -0.72329,0.01464 -0.72329,0.03254 0,0.0179 0.25249,0.555567 0.56113,1.194859 0.30865,0.639292 0.64306,1.357072 0.74312,1.59506 C 2.56411,3.680273 2.79371,4.063403 3.40047,4.830294 3.73555,5.25382 4.02432,5.637259 4.04226,5.682378 4.09896,5.824985 3.92624,6.05544 3.76416,6.053456 3.65885,6.052156 3.47275,5.889353 3.18416,5.545925 2.53557,4.774067 2.20223,4.24385 1.50173,2.870173 1.14832,2.17713 0.66581,1.247822 0.42952,0.805045 Z m 6.02324,0.035 c -0.41212,0 -0.42659,0.006 -0.37955,0.15751 0.0269,0.08663 0.15941,0.378023 0.29451,0.64754 0.24322,0.48522 0.71175,1.872767 1.13456,3.360208 0.57203,2.012368 0.6328,2.136269 1.88643,3.849008 l 0.46036,0.628945 0.019,-1.429072 C 9.45585,5.951843 9.44355,5.779021 9.30976,5.376112 9.22856,5.131997 9.06556,4.54708 8.94757,4.076246 8.74687,3.27538 8.73118,3.117515 8.7031,1.627599 L 8.673,0.035 H 7.97514 7.27742 l 0.0476,0.420026 c 0.0306,0.270244 0.0219,0.420026 -0.0241,0.420026 -0.0393,0 -0.24648,-0.189012 -0.46036,-0.420026 L 6.4517,0.035 Z M 4.04343,0.05045 C 3.26634,0.03333 3.15416,0.04505 3.15416,0.14301 c 0,0.237767 1.65733,4.204969 2.39683,5.737348 0.74995,1.554038 0.80518,1.644773 1.58767,2.605884 l 0.8108,0.995785 0.75295,0.0018 0.75296,0.0018 -0.46788,-0.64754 C 8.73016,8.48194 8.19583,7.76527 7.80015,7.245488 7.13267,6.368658 7.05276,6.228422 6.6928,5.302868 6.47941,4.754202 6.24361,4.092661 6.16886,3.832777 6.09406,3.572892 5.78534,2.619952 5.48276,1.715145 L 4.93271,0.070044 Z m -4.03632,2.819726 -0.002,0.902946 -0.002,0.902947 0.32295,0.592576 c 0.38505,0.706376 1.92991,2.475819 3.0858,3.534398 L 4.1573,9.485586 h 0.61801 c 0.33997,0 0.61814,-0.02361 0.61814,-0.0525 0,-0.117315 -1.6936,-1.906169 -2.23686,-2.362646 C 2.09117,6.175211 1.29848,5.143486 0.22516,3.255203 Z m -0.003,3.500217 v 0.665724 0.665725 l 0.50753,0.57863 C 0.79079,8.598756 1.20818,8.999818 1.4392,9.17166 L 1.85923,9.484082 2.55736,9.484902 3.25549,9.48559 2.76737,8.992551 C 2.49888,8.721384 1.93342,8.193726 1.51084,7.819979 1.08827,7.446231 0.57649,6.967184 0.37341,6.75542 Z" /></svg>
