<?xml version="1.0" encoding="UTF-8" standalone="no"?>
<!-- Created with Inkscape (http://www.inkscape.org/) -->

<svg
   width="11.82489mm"
   height="9.9934902mm"
   viewBox="0 0 11.82489 9.9934902"
   version="1.1"
   id="svg1"
   xml:space="preserve"
   xmlns="http://www.w3.org/2000/svg"
   xmlns:svg="http://www.w3.org/2000/svg"><defs
     id="defs1"><clipPath
       clipPathUnits="userSpaceOnUse"
       id="clipPath46">
                            <path
   style="fill:#000000;fill-opacity:1;stroke:none;stroke-width:0.261536"
   d="m -45.833332,419.62528 c 0,0 -27.685177,-32.54314 -35.464538,-37.66619 -7.779348,-5.12302 -58.19859,-40.58822 -62.41623,-46.64779 -4.21754,-6.05954 -28.61947,-31.27626 -32.60049,-39.77587 -3.98095,-8.49966 -19.57151,-39.61924 -19.57151,-39.61924 0,0 -21.33435,-19.24367 -17.33406,-26.37877 4.00028,-7.13507 10.03664,-16.2523 15.60671,-10.33669 5.57006,5.91564 12.94607,21.80262 18.81248,33.77256 5.86642,11.96996 26.22536,35.58532 35.7375,41.85848 9.51205,6.27314 24.89763,22.17666 33.73207,30.58957 8.83443,8.4129 25.560541,25.57637 34.33323,33.7979 8.77262,8.22153 13.410165,13.0275 21.084458,22.23889 7.674353,9.21139 8.08038,38.16715 8.08038,38.16715 z M 0.44653167,433.01497 -28.551389,376.44094 c -9.969685,-6.34815 -60.501559,-52.88875 -60.501559,-52.88875 -6.834852,-7.23644 -60.678042,-67.40755 -60.678042,-67.40755 -5.35009,-9.0124 -34.46735,-62.72871 -34.46735,-62.72871 -4.26166,-13.91904 -31.44913,-76.7696 -31.44913,-76.7696 -5.20697,-8.24408 -31.57554,-52.889132 -31.57554,-52.889132 l 21.40022,6.693435 41.80203,68.721197 c 2.16198,8.53809 44.23705,82.33358 44.23705,82.33358 12.70361,20.39644 46.020282,56.68166 46.020282,56.68166 14.150789,9.60134 42.405085,37.25273 42.405085,37.25273 8.054809,11.10628 30.605294,34.46896 30.605294,34.46896 10.237893,12.90691 32.476757,46.4829 32.476757,46.4829 5.398056,10.65768 13.477399,51.18465 13.477399,51.18465 z m 45.95539933,7.83984 -18.34634,-50.85077 c -4.237302,-7.60841 -38.255866,-62.28239 -38.255866,-62.28239 L -74.886479,273.6315 -127.0322,220.7182 c -7.00997,-7.2511 -51.31292,-98.70017 -51.31292,-98.70017 -4.0285,-6.89796 -33.5079,-67.773896 -33.5079,-67.773896 l -10.4234,-20.928772 24.73628,-1.519952 33.97568,67.283579 c 2.08534,5.313501 41.61052,79.924591 41.61052,79.924591 4.54432,15.46227 29.92408,52.31594 29.92408,52.31594 9.80313,12.00928 25.132247,29.76523 25.132247,29.76523 10.885922,4.13832 12.581213,-10.25795 12.581213,-10.25795 l -34.582568,-43.53755 c -7.363582,-9.05464 -24.110102,-52.39835 -24.110102,-52.39835 -6.6768,-10.56305 -29.68052,-60.960171 -29.68052,-60.960171 -4.11351,-7.1872 -13.95014,-33.82889 -13.95014,-33.82889 -3.44033,-13.206693 -8.01675,-29.359669 -8.01675,-29.359669 l 41.61627,-5.742215 22.5979,73.345344 c 4.677002,8.785741 28.371813,97.118011 28.371813,97.118011 4.528769,8.30005 42.156234,73.77167 42.156234,73.77167 7.076998,6.59741 50.626317,71.17212 50.626317,71.17212 7.840768,10.07761 31.555055,47.77364 31.555055,47.77364 3.937503,9.85205 19.719396,52.27749 19.719396,52.27749 L 60.71372,450.12216 Z M 99.891765,455.3671 C 101.49167,448.05537 93.267868,415.04635 93.267868,415.04635 88.86835,408.36771 61.756417,365.92026 61.756417,365.92026 L 9.5586758,302.75721 c -2.8254589,-5.76858 -37.5158448,-76.96579 -37.5158448,-76.96579 -5.823514,-10.32318 -50.18286,-122.4291 -50.18286,-122.4291 -2.181079,-7.12117 -19.905239,-76.319814 -19.905239,-76.319814 6.867549,-4.206986 38.642793,-3.104184 38.642793,-3.104184 2.978036,16.06042 31.632184,75.310008 31.632184,75.310008 5.312137,20.73851 30.1278552,90.95669 30.1278552,90.95669 3.8375431,21.06715 28.3159198,78.2638 28.3159198,78.2638 14.679904,20.59297 38.609746,51.03133 38.609746,51.03133 11.201056,15.86539 27.493966,38.10124 27.493966,38.10124 6.452154,16.02618 17.868134,36.48684 17.868134,36.48684 10.25678,18.29847 20.27285,54.76107 20.27285,54.76107 -2.64427,13.23078 -10.60863,18.15153 -10.60863,18.15153 z M 142.27815,406.8885 C 140.21162,398.6752 97.302129,336.27753 97.302129,336.27753 88.377522,328.13924 49.978172,271.29613 49.978172,271.29613 41.320238,255.17396 20.059618,175.72422 20.059618,175.72422 16.284913,167.02614 4.8312596,129.25504 4.8312596,129.25504 -1.1775867,120.36457 -18.720216,79.057499 -18.720216,79.057499 -21.965727,67.414351 -32.183859,40.956436 -32.183859,40.956436 -39.375787,33.086243 -36.966488,11.346404 -36.966488,11.346404 l 22.53743,-0.691787 9.7679142,40.344929 C 2.1933637,66.913 16.25229,96.96669 16.25229,96.96669 22.165992,108.17849 36.850341,117.2316 36.850341,117.2316 39.877227,108.86651 29.787368,72.45319 29.787368,72.45319 25.096464,57.392331 24.814604,23.813333 24.814604,23.813333 18.35885,15.484215 20.467209,5.7572455 20.467209,5.7572455 l 50.260752,6.1886125 4.719029,72.38684 c 0.285882,13.42811 -0.740674,78.401722 -0.740674,78.401722 -0.635106,9.99412 10.231808,53.197 10.231808,53.197 4.51477,24.25302 17.481526,51.49087 17.481526,51.49087 10.78978,15.66653 22.28657,48.5571 22.28657,48.5571 8.79633,12.12871 31.35669,32.28001 31.35669,32.28001 9.8253,14.74817 24.87851,38.69352 24.87851,38.69352 5.42057,14.59833 9.15792,37.98829 9.15792,37.98829 2.67747,14.73742 -3.17834,32.7601 -3.17834,32.7601 -4.19605,8.25116 -29.3235,6.3578 -29.3235,6.3578 l -1.68389,-24.41244 z"
   id="path47" />
                        </clipPath><clipPath
       clipPathUnits="userSpaceOnUse"
       id="clipPath3">
                            <rect
   style="fill:#000000;stroke-width:0.21573"
   id="rect4"
   width="147.48918"
   height="147.48918"
   x="533.11859"
   y="-474.58731" />
                        </clipPath></defs><path
     id="wisdom-badge"
     style="fill:#b29c86;fill-opacity:1;stroke-width:0.264583"
     d="m 2.76913,0.002764 c -0.16388,0.0066 -0.3192,0.0249 -0.4553,0.05592 C 2.10581,0.106104 1.69795,0.254061 1.40747,0.387513 L 0.87929,0.630204 0.43971,1.363335 0,2.096467 0.24036,2.461528 c 0.13215,0.20082 0.28051,0.443954 0.32979,0.54021 0.0493,0.09626 0.24279,0.338462 0.43,0.538295 0.18722,0.199833 0.34045,0.410093 0.34045,0.467197 0,0.295944 0.49831,0.658521 1.85197,1.347447 C 3.57929,5.551491 3.91799,5.716876 3.94512,5.7222 3.97222,5.7275 4.01252,5.613775 4.03472,5.469391 4.05692,5.325007 4.12142,5.046596 4.17801,4.8507 4.31284,4.383652 4.31421,4.394899 4.06931,4.00094 3.81438,3.590848 3.64198,2.843789 3.73788,2.565168 3.78108,2.43971 3.77558,2.206197 3.72188,1.888095 3.62388,1.307215 3.64288,1.26078 4.17977,0.770076 L 4.57396,0.4098 4.19003,0.234105 C 3.82974,0.069162 3.26081,-0.016892 2.76916,0.002763 Z m 5.84906,0.0072 C 8.25408,0.035764 7.8919,0.113053 7.61365,0.23611 L 7.2114,0.413992 7.57003,0.697428 C 7.96877,1.012608 8.22273,1.371517 8.16029,1.531601 8.05464,1.802431 8.017,2.326417 8.08499,2.580982 8.18329,2.949179 8.05449,3.469884 7.73319,4.002535 7.48966,4.406272 7.48894,4.40973 7.59906,4.684941 c 0.0609,0.152132 0.13111,0.44991 0.15601,0.66176 0.0249,0.21185 0.0527,0.38516 0.0618,0.38516 0.0864,0 1.45196,-0.695736 1.88929,-0.962559 0.44458,-0.271244 0.59612,-0.408235 0.73505,-0.664631 0.0962,-0.177641 0.31055,-0.490666 0.47622,-0.695532 0.16567,-0.204866 0.4376,-0.589735 0.60433,-0.855365 L 11.82489,2.070716 11.52751,1.608715 C 11.36395,1.354563 11.17787,1.044214 11.11391,0.919063 10.98164,0.660248 10.3255,0.293911 9.63424,0.092957 9.34842,0.009867 8.98233,-0.015833 8.61823,0.009967 Z M 5.97839,0.389108 C 5.49614,0.388473 5.01898,0.482648 4.66062,0.656957 4.36796,0.799303 4.27707,0.890672 4.14338,1.17611 4.01251,1.455542 3.99123,1.580909 4.03358,1.824607 c 0.0289,0.166145 0.0488,0.396537 0.0442,0.512044 -0.005,0.115507 -0.0142,0.367523 -0.0213,0.560035 -0.0132,0.356475 0.23672,1.03807 0.47896,1.305745 0.0975,0.107781 0.0972,0.15707 -0.003,0.502746 -0.18125,0.623483 -0.15505,0.754281 0.23394,1.168607 0.33069,0.352222 0.34985,0.394821 0.45188,1.005492 0.0586,0.350738 0.12539,0.889712 0.14835,1.197731 0.0845,1.133811 0.36916,1.771837 0.8313,1.863456 0.1201,0.02381 0.24814,0.04742 0.28453,0.0525 C 6.60177,10.009583 6.94136,9.629177 6.93898,9.481465 6.93498,9.206742 6.64662,8.969877 6.57173,9.179571 6.51963,9.325433 6.43779,9.186671 6.37375,8.843906 6.32615,8.588988 6.35845,8.272527 6.52456,7.369986 6.76118,6.084223 6.78407,6.001801 6.897,6.027735 6.9409,6.037815 7.10642,5.904485 7.2648,5.731447 L 7.55275,5.416838 7.42463,4.878543 7.29638,4.340248 7.54058,3.934851 C 7.83434,3.447011 7.95049,3.051516 7.88513,2.761595 7.85843,2.643399 7.83203,2.263142 7.82643,1.916621 7.81743,1.367633 7.79443,1.2574 7.6465,1.060162 7.36916,0.690482 7.01193,0.498616 6.45848,0.421919 6.30077,0.400059 6.13945,0.389319 5.9787,0.389109 Z" /></svg>
